<svg width="16" height="16" viewBox="0 0 16 16" fill="none" xmlns="http://www.w3.org/2000/svg">
<path d="M3.99999 14.6666C3.64637 14.6666 3.30723 14.5262 3.05718 14.2761C2.80713 14.0261 2.66666 13.6869 2.66666 13.3333V2.66665C2.66666 2.31303 2.80713 1.97389 3.05718 1.72384C3.30723 1.47379 3.64637 1.33332 3.99999 1.33332H9.33332C9.54436 1.33297 9.75338 1.37438 9.94834 1.45516C10.1433 1.53594 10.3204 1.65449 10.4693 1.80398L12.8613 4.19598C13.0112 4.34499 13.1301 4.52221 13.2111 4.71742C13.2921 4.91263 13.3337 5.12196 13.3333 5.33332V13.3333C13.3333 13.6869 13.1928 14.0261 12.9428 14.2761C12.6928 14.5262 12.3536 14.6666 12 14.6666H3.99999Z" stroke="#CAD5E2" stroke-width="1.33333" stroke-linecap="round" stroke-linejoin="round"/>
<path d="M9.33334 1.33331V4.66665C9.33334 4.84346 9.40358 5.01303 9.52861 5.13805C9.65363 5.26308 9.8232 5.33331 10 5.33331H13.3333" stroke="#CAD5E2" stroke-width="1.33333" stroke-linecap="round" stroke-linejoin="round"/>
<path d="M6 10L7.33333 11.3334L10 8.66669" stroke="#CAD5E2" stroke-width="1.33333" stroke-linecap="round" stroke-linejoin="round"/>
</svg>
