<svg width="16" height="16" viewBox="0 0 16 16" fill="none" xmlns="http://www.w3.org/2000/svg">
<path d="M13.3333 6.66667C13.5101 6.66667 13.6797 6.59643 13.8047 6.4714C13.9298 6.34638 14 6.17681 14 6V4C14 3.82319 13.9298 3.65362 13.8047 3.5286C13.6797 3.40357 13.5101 3.33333 13.3333 3.33333H11.6667C11.5632 3.33333 11.4611 3.30924 11.3685 3.26295C11.276 3.21667 11.1954 3.14946 11.1333 3.06667L10.5333 2.26667C10.4712 2.18387 10.3907 2.11667 10.2981 2.07038C10.2056 2.0241 10.1035 2 10 2H8.66667C8.48986 2 8.32029 2.07024 8.19526 2.19526C8.07024 2.32029 8 2.48986 8 2.66667V6C8 6.17681 8.07024 6.34638 8.19526 6.4714C8.32029 6.59643 8.48986 6.66667 8.66667 6.66667H13.3333Z" stroke="#CAD5E2" stroke-width="1.33333" stroke-linecap="round" stroke-linejoin="round"/>
<path d="M13.3333 14C13.5101 14 13.6797 13.9298 13.8047 13.8048C13.9298 13.6798 14 13.5102 14 13.3334V11.3334C14 11.1566 13.9298 10.987 13.8047 10.862C13.6797 10.7369 13.5101 10.6667 13.3333 10.6667H11.4C11.278 10.6651 11.1588 10.6301 11.0554 10.5654C10.9519 10.5008 10.8682 10.409 10.8133 10.3L10.5333 9.73338C10.4813 9.61413 10.3955 9.51271 10.2865 9.44163C10.1775 9.37056 10.0501 9.33292 9.92 9.33338H8.66667C8.48986 9.33338 8.32029 9.40362 8.19526 9.52864C8.07024 9.65366 8 9.82323 8 10V13.3334C8 13.5102 8.07024 13.6798 8.19526 13.8048C8.32029 13.9298 8.48986 14 8.66667 14H13.3333Z" stroke="#CAD5E2" stroke-width="1.33333" stroke-linecap="round" stroke-linejoin="round"/>
<path d="M2 3.33337C2 3.687 2.14048 4.02613 2.39052 4.27618C2.64057 4.52623 2.97971 4.66671 3.33333 4.66671H5.33333" stroke="#CAD5E2" stroke-width="1.33333" stroke-linecap="round" stroke-linejoin="round"/>
<path d="M2 2V10.6667C2 11.0203 2.14048 11.3594 2.39052 11.6095C2.64057 11.8595 2.97971 12 3.33333 12H5.33333" stroke="#CAD5E2" stroke-width="1.33333" stroke-linecap="round" stroke-linejoin="round"/>
</svg>
