<svg width="32" height="32" viewBox="0 0 32 32" fill="none" xmlns="http://www.w3.org/2000/svg">
<path d="M27.9997 21.3333H22.6663C21.93 21.3333 21.333 21.9302 21.333 22.6666V27.9999C21.333 28.7363 21.93 29.3333 22.6663 29.3333H27.9997C28.7361 29.3333 29.333 28.7363 29.333 27.9999V22.6666C29.333 21.9302 28.7361 21.3333 27.9997 21.3333Z" stroke="#9810FA" stroke-width="2.66667" stroke-linecap="round" stroke-linejoin="round"/>
<path d="M9.33366 21.3333H4.00033C3.26395 21.3333 2.66699 21.9302 2.66699 22.6666V27.9999C2.66699 28.7363 3.26395 29.3333 4.00033 29.3333H9.33366C10.07 29.3333 10.667 28.7363 10.667 27.9999V22.6666C10.667 21.9302 10.07 21.3333 9.33366 21.3333Z" stroke="#9810FA" stroke-width="2.66667" stroke-linecap="round" stroke-linejoin="round"/>
<path d="M18.6667 2.66675H13.3333C12.597 2.66675 12 3.2637 12 4.00008V9.33342C12 10.0698 12.597 10.6667 13.3333 10.6667H18.6667C19.403 10.6667 20 10.0698 20 9.33342V4.00008C20 3.2637 19.403 2.66675 18.6667 2.66675Z" stroke="#9810FA" stroke-width="2.66667" stroke-linecap="round" stroke-linejoin="round"/>
<path d="M6.66699 21.3333V17.3333C6.66699 16.9797 6.80747 16.6406 7.05752 16.3905C7.30757 16.1405 7.6467 16 8.00033 16H24.0003C24.3539 16 24.6931 16.1405 24.9431 16.3905C25.1932 16.6406 25.3337 16.9797 25.3337 17.3333V21.3333" stroke="#9810FA" stroke-width="2.66667" stroke-linecap="round" stroke-linejoin="round"/>
<path d="M16 16.0001V10.6667" stroke="#9810FA" stroke-width="2.66667" stroke-linecap="round" stroke-linejoin="round"/>
</svg>
