<svg width="20" height="20" viewBox="0 0 20 20" fill="none" xmlns="http://www.w3.org/2000/svg">
<path d="M10 8.33333H10.0083" stroke="#CAD5E2" stroke-width="1.66667" stroke-linecap="round" stroke-linejoin="round"/>
<path d="M10 11.6667H10.0083" stroke="#CAD5E2" stroke-width="1.66667" stroke-linecap="round" stroke-linejoin="round"/>
<path d="M10 5H10.0083" stroke="#CAD5E2" stroke-width="1.66667" stroke-linecap="round" stroke-linejoin="round"/>
<path d="M13.3333 8.33333H13.3417" stroke="#CAD5E2" stroke-width="1.66667" stroke-linecap="round" stroke-linejoin="round"/>
<path d="M13.3333 11.6667H13.3417" stroke="#CAD5E2" stroke-width="1.66667" stroke-linecap="round" stroke-linejoin="round"/>
<path d="M13.3333 5H13.3417" stroke="#CAD5E2" stroke-width="1.66667" stroke-linecap="round" stroke-linejoin="round"/>
<path d="M6.66666 8.33333H6.675" stroke="#CAD5E2" stroke-width="1.66667" stroke-linecap="round" stroke-linejoin="round"/>
<path d="M6.66666 11.6667H6.675" stroke="#CAD5E2" stroke-width="1.66667" stroke-linecap="round" stroke-linejoin="round"/>
<path d="M6.66666 5H6.675" stroke="#CAD5E2" stroke-width="1.66667" stroke-linecap="round" stroke-linejoin="round"/>
<path d="M7.5 18.3333V15.8333C7.5 15.6123 7.5878 15.4004 7.74408 15.2441C7.90036 15.0878 8.11232 15 8.33333 15H11.6667C11.8877 15 12.0996 15.0878 12.2559 15.2441C12.4122 15.4004 12.5 15.6123 12.5 15.8333V18.3333" stroke="#CAD5E2" stroke-width="1.66667" stroke-linecap="round" stroke-linejoin="round"/>
<path d="M15 1.66667H5C4.07953 1.66667 3.33334 2.41286 3.33334 3.33333V16.6667C3.33334 17.5871 4.07953 18.3333 5 18.3333H15C15.9205 18.3333 16.6667 17.5871 16.6667 16.6667V3.33333C16.6667 2.41286 15.9205 1.66667 15 1.66667Z" stroke="#CAD5E2" stroke-width="1.66667" stroke-linecap="round" stroke-linejoin="round"/>
</svg>
