<svg width="20" height="20" viewBox="0 0 20 20" fill="none" xmlns="http://www.w3.org/2000/svg">
<path d="M16.6667 10.8333C16.6667 15 13.75 17.0833 10.2833 18.2917C10.1018 18.3532 9.90462 18.3502 9.725 18.2833C6.25 17.0833 3.33334 15 3.33334 10.8333V5C3.33334 4.77898 3.42113 4.56702 3.57741 4.41074C3.73369 4.25446 3.94566 4.16666 4.16667 4.16666C5.83334 4.16666 7.91667 3.16666 9.36667 1.9C9.54321 1.74916 9.7678 1.66629 10 1.66629C10.2322 1.66629 10.4568 1.74916 10.6333 1.9C12.0917 3.175 14.1667 4.16666 15.8333 4.16666C16.0543 4.16666 16.2663 4.25446 16.4226 4.41074C16.5789 4.56702 16.6667 4.77898 16.6667 5V10.8333Z" stroke="#CAD5E2" stroke-width="1.66667" stroke-linecap="round" stroke-linejoin="round"/>
</svg>
