<svg width="16" height="16" viewBox="0 0 16 16" fill="none" xmlns="http://www.w3.org/2000/svg">
<path d="M10.6667 9.33331V10.8L11.7333 11.4666" stroke="#CAD5E2" stroke-width="1.33333" stroke-linecap="round" stroke-linejoin="round"/>
<path d="M10.6667 1.33331V3.99998" stroke="#CAD5E2" stroke-width="1.33333" stroke-linecap="round" stroke-linejoin="round"/>
<path d="M14 5.00002V4.00002C14 3.6464 13.8595 3.30726 13.6095 3.05721C13.3594 2.80716 13.0203 2.66669 12.6667 2.66669H3.33333C2.97971 2.66669 2.64057 2.80716 2.39052 3.05721C2.14048 3.30726 2 3.6464 2 4.00002V13.3334C2 13.687 2.14048 14.0261 2.39052 14.2762C2.64057 14.5262 2.97971 14.6667 3.33333 14.6667H5.66667" stroke="#CAD5E2" stroke-width="1.33333" stroke-linecap="round" stroke-linejoin="round"/>
<path d="M2 6.66669H5.33333" stroke="#CAD5E2" stroke-width="1.33333" stroke-linecap="round" stroke-linejoin="round"/>
<path d="M5.33334 1.33331V3.99998" stroke="#CAD5E2" stroke-width="1.33333" stroke-linecap="round" stroke-linejoin="round"/>
<path d="M10.6667 14.6667C12.8758 14.6667 14.6667 12.8758 14.6667 10.6667C14.6667 8.45755 12.8758 6.66669 10.6667 6.66669C8.45752 6.66669 6.66666 8.45755 6.66666 10.6667C6.66666 12.8758 8.45752 14.6667 10.6667 14.6667Z" stroke="#CAD5E2" stroke-width="1.33333" stroke-linecap="round" stroke-linejoin="round"/>
</svg>
